<?xml version="1.0" standalone="no"?>
<!DOCTYPE svg PUBLIC "-//W3C//DTD SVG 20010904//EN"
 "http://www.w3.org/TR/2001/REC-SVG-20010904/DTD/svg10.dtd">
<svg version="1.0" xmlns="http://www.w3.org/2000/svg"
 width="195.000000pt" height="259.000000pt" viewBox="0 0 195.000000 259.000000"
 preserveAspectRatio="xMidYMid meet">

<g transform="translate(0.000000,259.000000) scale(0.100000,-0.100000)"
fill="#000000" stroke="none">
<path d="M300 2570 c-6 -11 -7 -20 -3 -20 4 0 1 -5 -7 -10 -8 -5 -63 -10 -121
-10 -59 0 -121 -3 -138 -6 l-31 -6 0 -70 0 -69 142 5 c100 3 123 2 78 -4 -36
-4 -100 -8 -142 -9 l-78 -1 0 -1185 0 -1185 975 0 975 0 0 1275 0 1275 -161 0
c-152 0 -161 1 -166 20 -5 18 -14 20 -99 20 -72 0 -94 -3 -94 -13 0 -17 -205
-27 -590 -28 -258 0 -265 0 -274 20 -8 20 -17 21 -132 21 -113 0 -124 -2 -134
-20z m472 -133 c77 -38 202 -39 292 -3 75 30 189 41 276 27 97 -16 222 -81
293 -154 40 -41 64 -57 77 -54 10 2 24 1 31 -4 10 -6 6 -9 -13 -9 -16 0 -28
-3 -28 -6 0 -4 13 -28 28 -53 49 -80 74 -160 79 -252 7 -109 -9 -196 -51 -283
-31 -64 -32 -66 -15 -93 48 -77 13 -206 -67 -249 -31 -17 -32 -20 -39 -103 -4
-47 -13 -104 -20 -128 l-13 -43 62 -29 c198 -92 249 -328 101 -475 -72 -73
-144 -104 -277 -121 -30 -4 -48 -11 -48 -19 0 -22 -79 -104 -133 -140 -116
-76 -203 -99 -372 -100 -145 -1 -228 15 -325 64 -63 32 -154 109 -175 149 -12
24 -22 28 -94 38 -132 20 -231 81 -291 180 -32 53 -35 63 -34 138 0 66 5 89
27 131 31 61 92 117 164 151 l51 24 -28 62 -28 62 -76 3 c-96 4 -100 22 -6 22
l71 0 -7 49 c-3 26 -7 63 -8 82 l-2 34 -62 3 c-79 4 -72 22 9 22 51 0 59 2 59
19 0 11 9 47 19 80 l19 61 -79 0 c-46 0 -79 4 -79 10 0 6 30 10 70 10 39 0 70
4 70 8 0 4 -11 22 -23 40 -13 17 -32 50 -42 72 -15 33 -23 40 -47 40 -17 0
-27 4 -23 10 3 6 15 10 26 10 19 0 20 4 14 43 -4 23 -18 58 -31 77 -51 76 -38
174 34 246 25 24 61 98 62 124 0 3 -18 4 -40 2 -25 -3 -40 0 -40 7 0 6 20 11
48 11 43 0 49 3 67 32 48 82 120 141 224 185 50 21 68 23 172 20 101 -3 122
-6 171 -30z m1058 -31 c8 -2 -34 -4 -93 -5 -60 0 -106 2 -104 7 5 7 165 5 197
-2z m-13 -162 c-3 -3 -12 -4 -19 -1 -8 3 -5 6 6 6 11 1 17 -2 13 -5z m-1774
-31 c-7 -2 -19 -2 -25 0 -7 3 -2 5 12 5 14 0 19 -2 13 -5z"/>
<path d="M460 2431 c-124 -40 -250 -170 -280 -289 -9 -35 -20 -53 -40 -64 -31
-18 -70 -91 -70 -132 0 -28 22 -79 47 -107 7 -9 18 -44 24 -79 12 -73 37 -126
85 -179 l35 -39 -23 -53 c-18 -45 -22 -74 -22 -169 -1 -131 14 -188 70 -270
19 -28 30 -50 25 -50 -35 0 -132 -49 -174 -89 -118 -109 -129 -251 -29 -362
74 -83 154 -118 275 -120 52 -2 54 -2 77 -45 12 -25 40 -60 61 -78 20 -19 35
-37 32 -39 -2 -3 2 -5 9 -4 7 1 39 -12 71 -27 207 -100 487 -81 667 43 34 23
70 61 95 98 l40 61 75 4 c126 8 245 83 291 183 43 93 12 225 -69 296 -38 34
-126 79 -154 79 -10 0 -18 1 -18 3 0 1 9 31 20 65 13 42 20 92 20 147 l0 83
37 19 c94 49 125 148 72 229 l-26 39 23 34 c59 86 90 270 64 382 -22 99 -86
215 -154 284 -182 181 -463 205 -662 55 l-50 -38 -34 34 c-18 19 -63 49 -99
67 -61 30 -74 32 -176 34 -60 1 -121 -1 -135 -6z m225 -116 c69 -33 109 -79
157 -181 89 -191 89 -341 0 -436 -14 -15 -30 -25 -35 -21 -6 3 -7 1 -4 -4 8
-13 -32 -41 -64 -45 -13 -2 -28 -6 -34 -10 -15 -8 -154 -8 -159 1 -7 10 -66 1
-66 -10 0 -5 -9 -9 -21 -9 -11 0 -18 4 -15 9 4 5 -3 7 -13 4 -22 -6 -103 18
-83 24 6 3 10 9 7 13 -3 5 -12 7 -19 4 -20 -8 -54 42 -72 105 -26 88 -15 266
21 360 31 78 88 152 139 178 94 49 182 55 261 18z m613 -6 c11 -17 20 -20 44
-15 29 6 69 -9 110 -42 9 -8 25 -13 35 -12 34 4 43 0 43 -20 0 -11 7 -23 15
-26 8 -4 15 -18 15 -34 0 -15 7 -33 15 -40 17 -14 11 -55 -11 -81 -8 -8 -14
-24 -14 -35 0 -17 -3 -16 -20 6 -11 14 -32 49 -47 78 -45 89 -132 141 -241
144 -20 1 -32 6 -32 15 0 17 -15 17 -32 0 -7 -7 -35 -21 -63 -31 -28 -11 -69
-38 -92 -61 -24 -23 -43 -39 -43 -35 0 4 -9 10 -20 13 -16 4 -20 14 -20 44 0
33 5 42 25 51 14 7 25 20 25 31 0 21 32 37 50 26 6 -4 18 -1 27 7 9 7 37 14
62 15 25 1 53 3 61 3 8 1 25 -2 36 -5 14 -4 27 -1 35 9 18 20 22 20 37 -5z
m-108 -138 c0 -11 2 -26 6 -34 4 -11 -8 -16 -51 -21 -31 -3 -75 -15 -98 -26
-22 -11 -42 -20 -44 -20 -1 0 7 15 18 34 34 58 169 111 169 67z m216 -42 c32
-31 50 -84 22 -62 -7 6 -37 18 -66 29 -50 17 -82 50 -82 83 0 19 93 -18 126
-50z m-141 11 c12 -22 12 -28 2 -24 -7 2 -18 18 -24 34 -14 37 2 29 22 -10z
m105 -69 c57 -29 136 -104 162 -155 25 -48 29 -164 9 -216 -20 -50 -57 -98
-89 -114 -40 -20 -220 -46 -293 -42 -79 5 -132 27 -177 73 -54 56 -65 93 -57
194 6 74 11 91 31 110 25 24 49 83 40 98 -11 16 51 52 116 66 89 20 202 14
258 -14z m-409 -27 c11 -13 10 -23 -2 -57 -20 -58 -35 -57 -43 4 -5 38 -4 54
6 60 18 12 24 11 39 -7z m559 -69 c0 -16 -27 28 -34 55 -5 19 -2 16 13 -10 11
-19 20 -39 21 -45z m103 34 c-8 -8 -7 -20 2 -43 17 -39 9 -76 -15 -76 -15 0
-17 8 -15 55 4 72 14 100 28 86 8 -8 8 -14 0 -22z m-1403 1 c0 -5 -7 -7 -15
-4 -8 4 -15 8 -15 10 0 2 7 4 15 4 8 0 15 -4 15 -10z m-20 -44 c-5 -15 -5 -27
3 -35 6 -6 8 -11 3 -11 -9 0 -36 26 -36 35 0 9 24 34 32 35 4 0 3 -11 -2 -24z
m17 -18 c-3 -8 -6 -5 -6 6 -1 11 2 17 5 13 3 -3 4 -12 1 -19z m1413 -109 c0
-6 -4 -7 -10 -4 -5 3 -10 11 -10 16 0 6 5 7 10 4 6 -3 10 -11 10 -16z m-43
-41 c-3 -8 -6 -5 -6 6 -1 11 2 17 5 13 3 -3 4 -12 1 -19z m18 -18 c-3 -5 -12
-10 -18 -10 -7 0 -6 4 3 10 19 12 23 12 15 0z m-1053 -210 c8 -25 15 -30 36
-28 23 3 27 -1 32 -32 3 -20 10 -41 14 -48 13 -21 -12 -40 -65 -47 -108 -15
-168 -3 -186 38 -13 27 -3 53 30 90 31 32 53 37 37 8 -16 -32 -12 -39 26 -43
30 -4 38 0 47 19 7 16 7 30 -1 48 -10 21 -9 25 4 25 8 0 20 -14 26 -30z m304
-22 c119 -43 156 -84 99 -110 -37 -17 -100 0 -100 27 0 13 -19 31 -58 55 -32
19 -63 44 -69 54 -9 17 -8 18 16 12 14 -3 65 -20 112 -38z m-100 -107 c24 -67
44 -126 44 -130 0 -5 -21 -14 -48 -20 -59 -15 -167 7 -224 45 -21 13 -42 24
-48 24 -5 0 -10 4 -10 9 0 4 30 11 67 15 65 7 133 30 133 46 0 4 -7 24 -15 43
-8 20 -15 44 -15 54 0 20 50 54 63 43 5 -4 29 -62 53 -129z m874 47 c18 -29
19 -39 1 -60 -13 -15 -17 -15 -42 -2 -15 7 -31 18 -34 24 -10 16 4 48 23 53
32 9 37 7 52 -15z m-615 -279 c42 -37 65 -77 65 -113 0 -30 -36 -72 -70 -81
-24 -7 -24 -7 -5 9 19 15 19 15 -11 16 -31 0 -61 24 -83 67 -18 35 -18 112 -1
123 29 19 69 10 105 -21z m-351 -68 c21 -18 20 -31 -1 -31 -42 1 -66 43 -41
68 10 10 14 9 19 -6 4 -10 14 -24 23 -31z m536 -20 c16 -31 12 -58 -12 -81
-45 -42 -115 -10 -88 40 14 26 18 25 13 -4 -6 -28 10 -40 42 -32 27 7 43 42
26 59 -14 14 -14 37 -1 37 5 0 14 -9 20 -19z m-420 0 c0 -5 -15 -12 -32 -15
-62 -12 -97 -100 -63 -153 l18 -28 -21 19 c-44 38 -37 125 13 164 24 19 85 28
85 13z m45 -52 c-8 -25 21 -37 49 -19 19 12 20 12 7 -3 -19 -23 -51 -21 -84 5
l-27 22 22 12 c28 15 41 8 33 -17z m140 -49 c3 -5 -1 -10 -10 -10 -9 0 -13 5
-10 10 3 6 8 10 10 10 2 0 7 -4 10 -10z m-18 -77 c-3 -10 -5 -2 -5 17 0 19 2
27 5 18 2 -10 2 -26 0 -35z m-87 20 c0 21 30 23 30 2 0 -8 5 -15 10 -15 6 0
10 7 10 15 0 8 4 15 10 15 13 0 -4 -43 -18 -48 -7 -2 -15 4 -18 12 -6 15 -8
15 -20 -1 -12 -16 -15 -16 -24 -3 -16 25 -12 47 5 24 13 -17 14 -17 15 -1z
m150 -10 c0 -16 -2 -16 -11 -3 -8 11 -12 12 -16 3 -7 -18 -23 -16 -23 2 0 9 9
15 25 15 17 0 25 -5 25 -17z m60 1 c0 -13 -3 -14 -14 -5 -11 9 -15 9 -19 -1
-4 -8 -6 -7 -6 5 -1 11 6 17 19 17 12 0 20 -7 20 -16z m50 9 c-8 -3 -18 -10
-21 -15 -3 -5 -9 -3 -12 6 -5 12 0 16 21 15 16 0 21 -3 12 -6z m52 -15 c-5
-20 -22 -35 -22 -19 0 5 -2 16 -5 23 -4 9 2 14 13 14 13 0 18 -6 14 -18z m339
-101 c7 -25 5 -27 -26 -27 -44 0 -88 -17 -80 -31 15 -23 -6 -79 -35 -94 -34
-17 -40 -18 -40 -6 0 5 13 14 30 21 33 14 44 36 35 73 -8 30 3 38 59 45 51 5
53 8 37 34 -10 16 -10 19 0 16 7 -2 16 -16 20 -31z m-214 -5 c30 -10 0 -19
-34 -11 -52 12 -53 12 -53 -11 0 -13 7 -20 20 -20 11 0 20 -4 20 -9 0 -5 -10
-7 -22 -3 -18 4 -20 2 -16 -16 4 -12 1 -22 -4 -22 -6 0 -5 -6 2 -15 10 -12 9
-15 -7 -15 -15 0 -19 7 -19 32 1 18 -5 33 -13 36 -10 3 -12 -1 -8 -17 3 -11 1
-21 -4 -21 -5 0 -9 9 -9 20 0 13 -5 18 -15 14 -9 -4 -15 -19 -15 -35 0 -23 5
-29 23 -30 l22 -2 -22 -4 c-13 -2 -23 -11 -23 -19 0 -12 7 -14 33 -8 17 4 45
6 60 5 26 -1 28 1 27 31 -3 51 2 57 10 13 5 -22 5 -43 2 -46 -4 -4 -40 -9 -81
-13 -67 -6 -73 -5 -66 11 4 10 7 37 6 61 -2 36 1 45 18 49 12 3 21 9 21 14 0
17 -30 22 -56 11 -14 -7 -24 -8 -24 -2 0 5 10 12 23 14 12 3 31 7 42 10 24 5
144 4 162 -2z m-864 -53 c23 -1 45 -1 50 0 4 0 7 -3 7 -7 0 -5 -21 -8 -47 -8
-42 1 -48 -2 -51 -21 -3 -18 2 -23 20 -24 l23 0 -22 -9 c-19 -8 -23 -17 -23
-50 0 -22 -4 -40 -10 -40 -5 0 -10 18 -10 40 0 37 -2 40 -27 40 -29 0 -87 -18
-113 -34 -9 -6 -6 3 8 27 12 21 19 44 15 54 -4 11 -3 14 6 9 8 -5 10 -18 6
-33 -5 -23 -4 -25 17 -19 13 3 35 6 50 6 34 0 56 33 37 56 -8 10 -8 14 0 14 6
0 12 12 12 28 l2 27 4 -27 c4 -25 9 -28 46 -29z m263 42 c-7 -11 -76 -20 -76
-10 0 9 25 16 58 18 13 0 21 -3 18 -8z m214 -5 c0 -10 -21 -13 -84 -12 -119 1
-95 19 32 23 37 1 52 -2 52 -11z m686 7 c-10 -11 -37 -12 -30 -2 3 5 12 9 21
9 9 0 13 -3 9 -7z m-563 -10 c-7 -2 -21 -2 -30 0 -10 3 -4 5 12 5 17 0 24 -2
18 -5z m-343 -33 c0 -5 -4 -10 -10 -10 -19 0 -10 -32 10 -37 11 -3 20 -9 20
-13 0 -4 -9 -10 -20 -13 -11 -3 -20 -13 -20 -24 0 -10 -5 -25 -11 -33 -7 -11
-8 -3 -4 28 6 36 4 42 -11 42 -10 0 -26 -7 -36 -17 -10 -9 -18 -11 -18 -5 0 6
14 18 30 27 42 22 39 39 -5 31 -51 -10 -44 11 8 22 58 13 67 14 67 2z m176 2
c-3 -5 -18 -7 -34 -4 -16 2 -33 -1 -36 -7 -5 -7 4 -11 25 -11 46 0 33 -7 -28
-14 -47 -5 -53 -4 -53 12 0 10 3 22 7 25 9 10 125 8 119 -1z m607 -5 c3 -8 1
-20 -4 -28 -6 -10 -9 -7 -9 14 0 29 5 35 13 14z m102 3 c20 -9 20 -9 0 -9 -12
-1 -26 -6 -33 -13 -13 -13 -15 -8 -6 16 7 18 10 18 39 6z m-1236 -14 c-12 -10
-60 -16 -54 -6 3 5 18 10 32 10 15 0 24 -2 22 -4z m174 -35 c-14 -25 -24 -31
-48 -29 l-30 1 28 4 c18 3 32 15 43 35 8 16 18 28 20 25 3 -2 -3 -18 -13 -36z
m511 14 c-21 -16 -64 -20 -64 -6 0 11 23 18 59 20 24 1 24 0 5 -14z m570 -14
c-5 -26 -2 -33 27 -50 29 -18 31 -21 13 -21 -12 0 -25 7 -28 16 -4 11 -12 14
-24 9 -41 -16 -46 -16 -24 -1 12 10 20 21 17 26 -6 9 11 50 20 50 3 0 2 -13
-1 -29z m-29 9 c3 -5 1 -10 -4 -10 -6 0 -11 5 -11 10 0 6 2 10 4 10 3 0 8 -4
11 -10z m-695 -35 c0 -20 -5 -25 -25 -25 -14 0 -25 -4 -25 -10 0 -5 5 -10 10
-10 6 0 10 -4 10 -8 0 -4 -16 -9 -37 -10 -20 -2 -40 -5 -44 -8 -4 -2 -10 0
-13 5 -3 5 10 12 29 15 20 4 33 11 30 17 -4 5 -10 7 -15 4 -5 -3 -11 -1 -15 5
-3 5 1 10 9 10 9 0 16 5 16 10 0 18 -28 11 -43 -10 -14 -20 -14 -20 -14 5 0
22 3 25 38 25 30 0 37 -3 33 -15 -5 -11 1 -15 21 -15 19 0 26 4 22 14 -5 12 0
26 10 26 2 0 3 -11 3 -25z m623 18 c-7 -2 -19 -2 -25 0 -7 3 -2 5 12 5 14 0
19 -2 13 -5z m37 -13 c0 -11 -2 -20 -4 -20 -2 0 -6 9 -9 20 -3 11 -1 20 4 20
5 0 9 -9 9 -20z m-103 -12 c-3 -8 -6 -5 -6 6 -1 11 2 17 5 13 3 -3 4 -12 1
-19z m83 8 c0 -3 -4 -8 -10 -11 -5 -3 -10 -1 -10 4 0 6 5 11 10 11 6 0 10 -2
10 -4z m-485 -36 c-34 -22 -45 -25 -45 -10 0 11 35 28 60 29 8 1 2 -8 -15 -19z"/>
<path d="M623 2230 c-13 -5 -23 -14 -23 -21 0 -7 7 -8 18 -4 9 4 30 10 46 13
20 3 24 7 15 13 -17 11 -27 10 -56 -1z"/>
<path d="M433 2223 c-21 -8 -15 -25 7 -18 10 3 29 1 40 -5 28 -15 40 -2 16 16
-20 14 -41 17 -63 7z"/>
<path d="M648 2149 c-12 -7 -18 -22 -18 -47 l0 -37 -79 0 -79 0 -6 36 c-7 41
-20 50 -53 38 -29 -10 -53 -59 -53 -104 0 -20 -4 -34 -9 -31 -5 3 -23 3 -40 0
-26 -5 -31 -11 -30 -33 0 -14 3 -21 5 -14 4 8 13 9 27 4 12 -5 31 -5 42 0 36
14 42 10 48 -33 6 -39 2 -49 -34 -100 -22 -32 -35 -58 -30 -58 6 0 14 8 20 18
9 16 11 15 31 -5 24 -26 38 -27 200 -12 157 14 188 23 196 56 5 17 3 28 -5 31
-6 2 -24 14 -39 27 -24 20 -27 29 -24 64 4 39 6 41 37 41 42 0 65 9 65 25 0
16 -17 22 -57 19 -23 -1 -30 2 -26 12 8 22 -5 58 -31 87 -28 30 -33 31 -58 16z
m49 -31 c27 -25 31 -75 7 -85 -21 -8 -44 15 -26 26 17 10 5 61 -14 61 -8 0
-14 5 -14 10 0 17 22 11 47 -12z m-249 -6 c2 -7 -2 -10 -12 -6 -10 4 -17 -2
-22 -20 -7 -30 3 -49 22 -42 22 8 17 -8 -7 -22 -18 -11 -24 -11 -40 4 -24 22
-24 31 1 72 20 33 49 40 58 14z m200 -78 c12 -8 22 -22 22 -30 0 -8 4 -12 10
-9 16 10 23 -43 10 -74 -6 -16 -20 -37 -31 -47 -32 -29 -21 -38 12 -10 l31 26
38 -21 c78 -44 9 -71 -216 -86 -99 -6 -124 1 -124 38 0 22 31 33 70 24 34 -7
38 1 13 22 -10 8 -12 11 -4 7 9 -4 12 -3 7 4 -4 6 -13 9 -20 6 -17 -7 -47 56
-41 87 7 37 41 59 91 59 23 0 46 5 49 10 9 15 58 12 83 -6z"/>
<path d="M588 2033 c7 -3 16 -2 19 1 4 3 -2 6 -13 5 -11 0 -14 -3 -6 -6z"/>
<path d="M625 2021 c3 -6 10 -9 15 -6 4 3 11 0 13 -5 3 -6 4 -5 3 2 -1 7 -11
15 -21 16 -11 3 -15 0 -10 -7z"/>
<path d="M440 1926 c0 -2 8 -10 18 -17 15 -13 16 -12 3 4 -13 16 -21 21 -21
13z"/>
<path d="M504 1874 c3 -9 6 -18 6 -20 0 -2 9 -4 20 -4 25 0 26 16 1 30 -27 14
-34 13 -27 -6z"/>
<path d="M591 1871 c-9 -6 -10 -11 -2 -15 13 -8 31 1 31 15 0 11 -11 11 -29 0z"/>
<path d="M545 1711 c-19 -8 -19 -8 3 -15 27 -9 89 0 97 14 7 12 -71 12 -100 1z"/>
<path d="M380 1630 c8 -5 20 -10 25 -10 6 0 3 5 -5 10 -8 5 -19 10 -25 10 -5
0 -3 -5 5 -10z"/>
<path d="M1511 2194 c0 -11 3 -14 6 -6 3 7 2 16 -1 19 -3 4 -6 -2 -5 -13z"/>
<path d="M1110 1970 l-25 -8 27 -1 c14 -1 35 -4 45 -8 16 -6 16 -5 4 10 -15
19 -15 19 -51 7z"/>
<path d="M1325 1960 c-4 -6 9 -10 32 -9 30 0 34 2 18 9 -27 12 -43 12 -50 0z"/>
<path d="M1061 1864 c14 -4 28 -49 29 -89 0 -5 -19 -10 -42 -10 -48 0 -63 -21
-22 -31 18 -5 36 -1 56 11 16 9 32 14 36 10 4 -4 1 -10 -5 -12 -7 -3 -13 -9
-13 -15 0 -6 6 -5 15 2 8 7 14 18 13 24 -1 6 2 28 7 49 9 46 3 54 -50 61 -22
3 -33 3 -24 0z"/>
<path d="M1334 1845 c-12 -30 6 -81 36 -103 31 -23 84 -29 110 -12 13 9 13 11
0 20 -13 8 -34 13 -60 12 -3 0 -16 -3 -28 -7 -21 -6 -23 -5 -13 13 6 12 11 34
11 51 0 20 6 31 18 34 9 3 -2 5 -26 6 -30 1 -44 -4 -48 -14z"/>
<path d="M1250 1781 c0 -6 9 -9 20 -8 11 1 20 5 20 9 0 4 -9 8 -20 8 -11 0
-20 -4 -20 -9z"/>
<path d="M1360 1696 c0 -26 -59 -56 -110 -56 -48 0 -90 21 -90 46 0 8 -4 14
-10 14 -5 0 -10 -3 -10 -8 0 -4 -11 -20 -25 -35 -14 -15 -22 -27 -17 -27 5 0
17 9 27 20 16 18 20 19 27 6 12 -22 83 -39 129 -31 22 4 52 18 68 31 l29 24
26 -21 c26 -21 37 -18 13 4 -51 47 -57 51 -57 33z"/>
<path d="M1415 1620 c4 -6 11 -8 16 -5 14 9 11 15 -7 15 -8 0 -12 -5 -9 -10z"/>
<path d="M1230 1600 c0 -5 11 -10 25 -10 14 0 25 5 25 10 0 6 -11 10 -25 10
-14 0 -25 -4 -25 -10z"/>
<path d="M1606 1454 c-10 -25 1 -29 14 -5 6 12 7 21 1 21 -5 0 -12 -7 -15 -16z"/>
<path d="M949 1198 c-14 -64 0 -97 53 -119 73 -30 50 69 -24 107 -16 8 -28 13
-29 12z"/>
<path d="M1160 821 c0 -15 6 -21 21 -21 25 0 22 33 -4 38 -12 2 -17 -3 -17
-17z"/>
<path d="M865 2390 c-3 -5 5 -16 19 -25 26 -18 50 -11 76 19 11 14 6 16 -38
16 -28 0 -53 -4 -57 -10z"/>
</g>
</svg>
